<svg width="3731" height="2027" xmlns="http://www.w3.org/2000/svg" xmlns:xlink="http://www.w3.org/1999/xlink" xml:space="preserve" overflow="hidden"><defs><clipPath id="clip0"><rect x="354" y="137" width="3731" height="2027"/></clipPath></defs><g clip-path="url(#clip0)" transform="translate(-354 -137)"><rect x="376.5" y="279.5" width="1289" height="588" stroke="#548235" stroke-width="6.875" stroke-linejoin="round" stroke-miterlimit="10" fill="none"/><text font-family="Times New Roman,Times New Roman_MSFontService,sans-serif" font-weight="700" font-size="64" transform="matrix(1 0 0 1 409.237 357)">Prompt:</text><text font-family="Times New Roman,Times New Roman_MSFontService,sans-serif" font-weight="400" font-size="55" transform="matrix(1 0 0 1 409.237 425)">The</text><text font-family="Times New Roman,Times New Roman_MSFontService,sans-serif" font-weight="400" font-size="55" transform="matrix(1 0 0 1 523.133 425)">Baptist</text><text font-family="Times New Roman,Times New Roman_MSFontService,sans-serif" font-weight="400" font-size="55" transform="matrix(1 0 0 1 707.498 425)">Mission</text><text font-family="Times New Roman,Times New Roman_MSFontService,sans-serif" font-weight="400" font-size="55" transform="matrix(1 0 0 1 912.487 425)">Union</text><text font-family="Times New Roman,Times New Roman_MSFontService,sans-serif" font-weight="400" font-size="55" transform="matrix(1 0 0 1 1077.95 425)">censured</text><text fill="#548235" font-family="Times New Roman,Times New Roman_MSFontService,sans-serif" font-weight="700" font-size="55" transform="matrix(1 0 0 1 1301.84 425)">521351</text><text fill="#548235" font-family="Times New Roman,Times New Roman_MSFontService,sans-serif" font-weight="700" font-size="55" transform="matrix(1 0 0 1 1466.84 425)">caba</text><text fill="#548235" font-family="Times New Roman,Times New Roman_MSFontService,sans-serif" font-weight="700" font-size="55" transform="matrix(1 0 0 1 1576.84 425)">13</text><text fill="#548235" font-family="Times New Roman,Times New Roman_MSFontService,sans-serif" font-weight="700" font-size="55" transform="matrix(1 0 0 1 409.237 491)">f</text><text fill="#548235" font-family="Times New Roman,Times New Roman_MSFontService,sans-serif" font-weight="700" font-size="55" transform="matrix(1 0 0 1 427.57 491)">591</text><text font-family="Times New Roman,Times New Roman_MSFontService,sans-serif" font-weight="400" font-size="55" transform="matrix(1 0 0 1 525.035 491)">for</text><text font-family="Times New Roman,Times New Roman_MSFontService,sans-serif" font-weight="400" font-size="55" transform="matrix(1 0 0 1 604.166 491)">abandoning</text><text font-family="Times New Roman,Times New Roman_MSFontService,sans-serif" font-weight="400" font-size="55" transform="matrix(1 0 0 1 876.37 491)">his</text><text font-family="Times New Roman,Times New Roman_MSFontService,sans-serif" font-weight="400" font-size="55" transform="matrix(1 0 0 1 955.525 491)">post</text><text font-family="Times New Roman,Times New Roman_MSFontService,sans-serif" font-weight="400" font-size="55" transform="matrix(1 0 0 1 1062.18 491)">without</text><text font-family="Times New Roman,Times New Roman_MSFontService,sans-serif" font-weight="400" font-size="55" transform="matrix(1 0 0 1 1245.6 491)">authorization</text><text font-family="Times New Roman,Times New Roman_MSFontService,sans-serif" font-weight="400" font-size="55" transform="matrix(1 0 0 1 1552.21 491)">and</text><text font-family="Times New Roman,Times New Roman_MSFontService,sans-serif" font-weight="400" font-size="55" transform="matrix(1 0 0 1 409.237 557)">going</text><text font-family="Times New Roman,Times New Roman_MSFontService,sans-serif" font-weight="400" font-size="55" transform="matrix(1 0 0 1 560.235 557)">to</text><text font-family="Times New Roman,Times New Roman_MSFontService,sans-serif" font-weight="400" font-size="55" transform="matrix(1 0 0 1 628.733 557)">Rangoon</text><text font-family="Times New Roman,Times New Roman_MSFontService,sans-serif" font-weight="400" font-size="55" transform="matrix(1 0 0 1 827.535 557)">;</text><text font-family="Times New Roman,Times New Roman_MSFontService,sans-serif" font-weight="400" font-size="55" transform="matrix(1 0 0 1 868.533 557)">he</text><text font-family="Times New Roman,Times New Roman_MSFontService,sans-serif" font-weight="400" font-size="55" transform="matrix(1 0 0 1 946.198 557)">resigned</text><text font-family="Times New Roman,Times New Roman_MSFontService,sans-serif" font-weight="400" font-size="55" transform="matrix(1 0 0 1 1158.5 557)">from</text><text font-family="Times New Roman,Times New Roman_MSFontService,sans-serif" font-weight="400" font-size="55" transform="matrix(1 0 0 1 1291.19 557)">the</text><text font-family="Times New Roman,Times New Roman_MSFontService,sans-serif" font-weight="400" font-size="55" transform="matrix(1 0 0 1 1384.34 557)">Missionary</text><text font-family="Times New Roman,Times New Roman_MSFontService,sans-serif" font-weight="400" font-size="55" transform="matrix(1 0 0 1 409.237 623)">Union</text><text font-family="Times New Roman,Times New Roman_MSFontService,sans-serif" font-weight="400" font-size="55" transform="matrix(1 0 0 1 597.337 623)">and</text><text font-family="Times New Roman,Times New Roman_MSFontService,sans-serif" font-weight="400" font-size="55" transform="matrix(1 0 0 1 727.55 623)">accepted,</text><text font-family="Times New Roman,Times New Roman_MSFontService,sans-serif" font-weight="400" font-size="55" transform="matrix(1 0 0 1 985.523 623)">unpaid,</text><text font-family="Times New Roman,Times New Roman_MSFontService,sans-serif" font-weight="400" font-size="55" transform="matrix(1 0 0 1 1199.95 623)">the</text><text font-family="Times New Roman,Times New Roman_MSFontService,sans-serif" font-weight="400" font-size="55" transform="matrix(1 0 0 1 1318.14 623)">affiliation</text><text font-family="Times New Roman,Times New Roman_MSFontService,sans-serif" font-weight="400" font-size="55" transform="matrix(1 0 0 1 1586.01 623)">of</text><text font-family="Times New Roman,Times New Roman_MSFontService,sans-serif" font-weight="400" font-size="55" transform="matrix(1 0 0 1 409.237 689)">American</text><text font-family="Times New Roman,Times New Roman_MSFontService,sans-serif" font-weight="400" font-size="55" transform="matrix(1 0 0 1 653.116 689)">Baptist</text><text font-family="Times New Roman,Times New Roman_MSFontService,sans-serif" font-weight="400" font-size="55" transform="matrix(1 0 0 1 835.716 689)">Free</text><text font-family="Times New Roman,Times New Roman_MSFontService,sans-serif" font-weight="400" font-size="55" transform="matrix(1 0 0 1 959.879 689)">Mission</text><text font-family="Times New Roman,Times New Roman_MSFontService,sans-serif" font-weight="400" font-size="55" transform="matrix(1 0 0 1 1163.1 689)">Society</text><text fill="#548235" font-family="Times New Roman,Times New Roman_MSFontService,sans-serif" font-weight="400" font-size="55" transform="matrix(1 0 0 1 1354.87 689)">…</text><text font-family="Times New Roman,Times New Roman_MSFontService,sans-serif" font-weight="400" font-size="55" transform="matrix(1 0 0 1 1436.06 689)">In</text><text font-family="Times New Roman,Times New Roman_MSFontService,sans-serif" font-weight="400" font-size="55" transform="matrix(1 0 0 1 1508.09 689)">1872</text><text font-family="Times New Roman,Times New Roman_MSFontService,sans-serif" font-weight="400" font-size="55" transform="matrix(1 0 0 1 1618.09 689)">,</text><text font-family="Times New Roman,Times New Roman_MSFontService,sans-serif" font-weight="400" font-size="55" transform="matrix(1 0 0 1 409.237 755)">long</text><text font-family="Times New Roman,Times New Roman_MSFontService,sans-serif" font-weight="400" font-size="55" transform="matrix(1 0 0 1 520.956 755)">after</text><text font-family="Times New Roman,Times New Roman_MSFontService,sans-serif" font-weight="400" font-size="55" transform="matrix(1 0 0 1 636.112 755)">the</text><text font-family="Times New Roman,Times New Roman_MSFontService,sans-serif" font-weight="400" font-size="55" transform="matrix(1 0 0 1 717.466 755)">death</text><text font-family="Times New Roman,Times New Roman_MSFontService,sans-serif" font-weight="400" font-size="55" transform="matrix(1 0 0 1 850.956 755)">of</text><text fill="#548235" font-family="Times New Roman,Times New Roman_MSFontService,sans-serif" font-weight="700" font-size="55" transform="matrix(1 0 0 1 910.539 755)">521351</text><text fill="#548235" font-family="Times New Roman,Times New Roman_MSFontService,sans-serif" font-weight="700" font-size="55" transform="matrix(1 0 0 1 1075.54 755)">ca</text><text font-family="Times New Roman,Times New Roman_MSFontService,sans-serif" font-weight="700" font-size="64" transform="matrix(1 0 0 1 409.237 830)">Label: </text><text font-family="Times New Roman,Times New Roman_MSFontService,sans-serif" font-weight="400" font-size="55" transform="matrix(1 0 0 1 603.456 830)">ba13f591</text><rect x="3168.5" y="1212.5" width="883" height="722" stroke="#2E75B6" stroke-width="6.875" stroke-linejoin="round" stroke-miterlimit="10" fill="none"/><text font-family="Times New Roman,Times New Roman_MSFontService,sans-serif" font-weight="700" font-size="64" transform="matrix(1 0 0 1 3201.28 1291)">Prompt:</text><text font-family="Times New Roman,Times New Roman_MSFontService,sans-serif" font-weight="400" font-size="55" transform="matrix(1 0 0 1 3201.28 1359)">Input: [</text><text fill="#0070C0" font-family="Times New Roman,Times New Roman_MSFontService,sans-serif" font-weight="700" font-size="55" transform="matrix(1 0 0 1 3365.13 1359)">1</text><text font-family="Times New Roman,Times New Roman_MSFontService,sans-serif" font-weight="400" font-size="55" transform="matrix(1 0 0 1 3392.63 1359)">, 3, 6, 1, 83]</text><text font-family="Times New Roman,Times New Roman_MSFontService,sans-serif" font-weight="400" font-size="55" transform="matrix(1 0 0 1 3201.28 1425)">Output: [3]</text><text font-family="Times New Roman,Times New Roman_MSFontService,sans-serif" font-weight="400" font-size="55" transform="matrix(1 0 0 1 3201.28 1491)">Input: [</text><text fill="#0070C0" font-family="Times New Roman,Times New Roman_MSFontService,sans-serif" font-weight="700" font-size="55" transform="matrix(1 0 0 1 3365.13 1491)">5</text><text font-family="Times New Roman,Times New Roman_MSFontService,sans-serif" font-weight="400" font-size="55" transform="matrix(1 0 0 1 3392.63 1491)">, 6, 35, 3, 67, 41, 27, 82]</text><text font-family="Times New Roman,Times New Roman_MSFontService,sans-serif" font-weight="400" font-size="55" transform="matrix(1 0 0 1 3201.28 1557)">Output: [6, 35, 3, 67, 41]</text><text font-family="Times New Roman,Times New Roman_MSFontService,sans-serif" font-weight="400" font-size="55" transform="matrix(1 0 0 1 3201.28 1623)">Input: [</text><text fill="#0070C0" font-family="Times New Roman,Times New Roman_MSFontService,sans-serif" font-weight="700" font-size="55" transform="matrix(1 0 0 1 3365.13 1623)">8</text><text font-family="Times New Roman,Times New Roman_MSFontService,sans-serif" font-weight="400" font-size="55" transform="matrix(1 0 0 1 3392.63 1623)">, 45, 6, 18, 94, 0, 1, 2, 7, 34]</text><text font-family="Times New Roman,Times New Roman_MSFontService,sans-serif" font-weight="400" font-size="55" transform="matrix(1 0 0 1 3201.28 1689)">Output: [45, 6, 18, 94, 0, 1, 2, 7]</text><text font-family="Times New Roman,Times New Roman_MSFontService,sans-serif" font-weight="400" font-size="55" transform="matrix(1 0 0 1 3201.28 1755)">Input: [</text><text fill="#0070C0" font-family="Times New Roman,Times New Roman_MSFontService,sans-serif" font-weight="700" font-size="55" transform="matrix(1 0 0 1 3365.13 1755)">2</text><text font-family="Times New Roman,Times New Roman_MSFontService,sans-serif" font-weight="400" font-size="55" transform="matrix(1 0 0 1 3392.63 1755)">, 7, 66, 6, 93, 4, 47]</text><text font-family="Times New Roman,Times New Roman_MSFontService,sans-serif" font-weight="400" font-size="55" transform="matrix(1 0 0 1 3201.28 1821)">Output:</text><text font-family="Times New Roman,Times New Roman_MSFontService,sans-serif" font-weight="700" font-size="64" transform="matrix(1 0 0 1 3201.28 1896)">Label: </text><text font-family="Times New Roman,Times New Roman_MSFontService,sans-serif" font-weight="400" font-size="55" transform="matrix(1 0 0 1 3395.49 1896)">[7, 66]</text><rect x="2715.5" y="277.5" width="1336" height="589" stroke="#548235" stroke-width="6.875" stroke-linejoin="round" stroke-miterlimit="10" fill="none"/><text font-family="Times New Roman,Times New Roman_MSFontService,sans-serif" font-weight="700" font-size="64" transform="matrix(1 0 0 1 2748.22 356)">Prompt:</text><text font-family="Times New Roman,Times New Roman_MSFontService,sans-serif" font-weight="400" font-size="55" transform="matrix(1 0 0 1 2748.22 424)">c5f3b8 : On August 15, a convention in Atlanta, …</text><text font-family="Times New Roman,Times New Roman_MSFontService,sans-serif" font-weight="400" font-size="55" transform="matrix(1 0 0 1 2748.22 490)">5baa0d : Moreover, cloudy days are often warm and …</text><text font-family="Times New Roman,Times New Roman_MSFontService,sans-serif" font-weight="400" font-size="55" transform="matrix(1 0 0 1 2748.22 556)">79bbc3 : In this period, the band won several prizes …</text><text fill="#548235" font-family="Times New Roman,Times New Roman_MSFontService,sans-serif" font-weight="700" font-size="55" transform="matrix(1 0 0 1 2748.22 622)">71df7d</text><text font-family="Times New Roman,Times New Roman_MSFontService,sans-serif" font-weight="400" font-size="55" transform="matrix(1 0 0 1 2923.54 622)">: In winning the … Gold Cups in the 1930s.</text><text font-family="Times New Roman,Times New Roman_MSFontService,sans-serif" font-weight="400" font-size="55" transform="matrix(1 0 0 1 2748.22 688)">340b02 : Nevertheless, it has … in eukaryotic cells.</text><text fill="#548235" font-family="Times New Roman,Times New Roman_MSFontService,sans-serif" font-weight="700" font-size="55" transform="matrix(1 0 0 1 2748.22 754)">71df7d</text><text font-family="Times New Roman,Times New Roman_MSFontService,sans-serif" font-weight="400" font-size="55" transform="matrix(1 0 0 1 2923.54 754)">:</text><text font-family="Times New Roman,Times New Roman_MSFontService,sans-serif" font-weight="700" font-size="64" transform="matrix(1 0 0 1 2748.22 829)">Label: </text><text font-family="Times New Roman,Times New Roman_MSFontService,sans-serif" font-weight="400" font-size="55" transform="matrix(1 0 0 1 2942.44 829)">In winning the … Gold Cups in the 1930s.</text><rect x="3168.5" y="1954.5" width="883" height="189" stroke="#A6A6A6" stroke-width="6.875" stroke-linejoin="round" stroke-miterlimit="10" fill="none"/><text font-family="Times New Roman,Times New Roman_MSFontService,sans-serif" font-weight="700" font-size="64" transform="matrix(1 0 0 1 3201.28 2033)">Tips: </text><text font-family="Times New Roman,Times New Roman_MSFontService,sans-serif" font-weight="400" font-size="64" transform="matrix(1 0 0 1 3358.8 2033)">elements 2 through N + 1, </text><text font-family="Times New Roman,Times New Roman_MSFontService,sans-serif" font-weight="400" font-size="64" transform="matrix(1 0 0 1 3201.28 2110)">N = </text><text fill="#0070C0" font-family="Times New Roman,Times New Roman_MSFontService,sans-serif" font-weight="400" font-size="64" transform="matrix(1 0 0 1 3315.86 2110)">element 1</text><rect x="376.5" y="1210.5" width="883" height="933" stroke="#2E75B6" stroke-width="6.875" stroke-linejoin="round" stroke-miterlimit="10" fill="none"/><text font-family="Times New Roman,Times New Roman_MSFontService,sans-serif" font-weight="700" font-size="64" transform="matrix(1 0 0 1 409.237 1288)">Prompt:</text><text font-family="Times New Roman,Times New Roman_MSFontService,sans-serif" font-weight="400" font-size="64" transform="matrix(1 0 0 1 409.237 1365)">(n</text><text font-family="Times New Roman,Times New Roman_MSFontService,sans-serif" font-weight="400" font-size="64" transform="matrix(1 0 0 1 462.518 1365)">-</text><text font-family="Times New Roman,Times New Roman_MSFontService,sans-serif" font-weight="400" font-size="64" transform="matrix(1 0 0 1 483.716 1365)">shot examples…)</text><text font-family="Times New Roman,Times New Roman_MSFontService,sans-serif" font-weight="400" font-size="55" transform="matrix(1 0 0 1 409.237 1433)">Input:</text><text font-family="Times New Roman,Times New Roman_MSFontService,sans-serif" font-weight="400" font-size="55" transform="matrix(1 0 0 1 409.237 1499)">|</text><text font-family="Times New Roman,Times New Roman_MSFontService,sans-serif" font-weight="400" font-size="55" transform="matrix(1 0 0 1 420.123 1499)">Index|name|age|city</text><text font-family="Times New Roman,Times New Roman_MSFontService,sans-serif" font-weight="400" font-size="55" transform="matrix(1 0 0 1 857.831 1499)">|</text><text font-family="Times New Roman,Times New Roman_MSFontService,sans-serif" font-weight="400" font-size="55" transform="matrix(1 0 0 1 409.237 1565)">|</text><text font-family="Times New Roman,Times New Roman_MSFontService,sans-serif" font-weight="400" font-size="55" transform="matrix(1 0 0 1 420.123 1565)">---</text><text font-family="Times New Roman,Times New Roman_MSFontService,sans-serif" font-weight="400" font-size="55" transform="matrix(1 0 0 1 475.123 1565)">|</text><text font-family="Times New Roman,Times New Roman_MSFontService,sans-serif" font-weight="400" font-size="55" transform="matrix(1 0 0 1 486.008 1565)">---</text><text font-family="Times New Roman,Times New Roman_MSFontService,sans-serif" font-weight="400" font-size="55" transform="matrix(1 0 0 1 541.008 1565)">|</text><text font-family="Times New Roman,Times New Roman_MSFontService,sans-serif" font-weight="400" font-size="55" transform="matrix(1 0 0 1 551.893 1565)">---</text><text font-family="Times New Roman,Times New Roman_MSFontService,sans-serif" font-weight="400" font-size="55" transform="matrix(1 0 0 1 606.893 1565)">|</text><text font-family="Times New Roman,Times New Roman_MSFontService,sans-serif" font-weight="400" font-size="55" transform="matrix(1 0 0 1 617.779 1565)">---</text><text font-family="Times New Roman,Times New Roman_MSFontService,sans-serif" font-weight="400" font-size="55" transform="matrix(1 0 0 1 672.779 1565)">|</text><text font-family="Times New Roman,Times New Roman_MSFontService,sans-serif" font-weight="400" font-size="55" transform="matrix(1 0 0 1 409.237 1631)">|1|Elijah Morgan|36|Pittsburgh|</text><text font-family="Times New Roman,Times New Roman_MSFontService,sans-serif" font-weight="400" font-size="55" transform="matrix(1 0 0 1 409.237 1697)">Output:</text><text font-family="Times New Roman,Times New Roman_MSFontService,sans-serif" font-weight="700" font-size="64" transform="matrix(1 0 0 1 409.237 1772)">Label: </text><text font-family="Times New Roman,Times New Roman_MSFontService,sans-serif" font-weight="400" font-size="55" transform="matrix(1 0 0 1 409.237 1840)">&lt;person&gt;</text><text font-family="Times New Roman,Times New Roman_MSFontService,sans-serif" font-weight="400" font-size="55" transform="matrix(1 0 0 1 436.737 1906)">&lt;name&gt;Elijah Morgan&lt;/name&gt;</text><text font-family="Times New Roman,Times New Roman_MSFontService,sans-serif" font-weight="400" font-size="55" transform="matrix(1 0 0 1 436.737 1972)">&lt;age&gt;36&lt;/age&gt;</text><text font-family="Times New Roman,Times New Roman_MSFontService,sans-serif" font-weight="400" font-size="55" transform="matrix(1 0 0 1 436.737 2038)">&lt;city&gt;Pittsburgh&lt;/city&gt;</text><text font-family="Times New Roman,Times New Roman_MSFontService,sans-serif" font-weight="400" font-size="55" transform="matrix(1 0 0 1 409.237 2104)">&lt;/person&gt;</text><rect x="1302.5" y="1206.5" width="860" height="933" stroke="#2E75B6" stroke-width="6.875" stroke-linejoin="round" stroke-miterlimit="10" fill="none"/><text font-family="Times New Roman,Times New Roman_MSFontService,sans-serif" font-weight="700" font-size="64" transform="matrix(1 0 0 1 1334.55 1284)">Prompt:</text><text font-family="Times New Roman,Times New Roman_MSFontService,sans-serif" font-weight="400" font-size="64" transform="matrix(1 0 0 1 1334.55 1361)">(n</text><text font-family="Times New Roman,Times New Roman_MSFontService,sans-serif" font-weight="400" font-size="64" transform="matrix(1 0 0 1 1387.83 1361)">-</text><text font-family="Times New Roman,Times New Roman_MSFontService,sans-serif" font-weight="400" font-size="64" transform="matrix(1 0 0 1 1409.03 1361)">shot examples…)</text><text font-family="Times New Roman,Times New Roman_MSFontService,sans-serif" font-weight="400" font-size="55" transform="matrix(1 0 0 1 1334.55 1429)">Input:</text><text font-family="Times New Roman,Times New Roman_MSFontService,sans-serif" font-weight="400" font-size="55" transform="matrix(1 0 0 1 1334.55 1495)">588 and 823 are friends.</text><text fill="#2E75B6" font-family="Times New Roman,Times New Roman_MSFontService,sans-serif" font-weight="700" font-size="55" transform="matrix(1 0 0 1 1334.55 1561)">885</text><text font-family="Times New Roman,Times New Roman_MSFontService,sans-serif" font-weight="400" font-size="55" transform="matrix(1 0 0 1 1430.8 1561)">and 823 are friends.</text><text font-family="Times New Roman,Times New Roman_MSFontService,sans-serif" font-weight="400" font-size="55" transform="matrix(1 0 0 1 1334.55 1627)">795 and 588 are friends.</text><text font-family="Times New Roman,Times New Roman_MSFontService,sans-serif" font-weight="400" font-size="55" transform="matrix(1 0 0 1 1334.55 1693)">890 and 823 are friends.</text><text fill="#2E75B6" font-family="Times New Roman,Times New Roman_MSFontService,sans-serif" font-weight="700" font-size="55" transform="matrix(1 0 0 1 1334.55 1759)">885</text><text font-family="Times New Roman,Times New Roman_MSFontService,sans-serif" font-weight="400" font-size="55" transform="matrix(1 0 0 1 1430.8 1759)">and 588 are friends.</text><text font-family="Times New Roman,Times New Roman_MSFontService,sans-serif" font-weight="400" font-size="55" transform="matrix(1 0 0 1 1334.55 1825)">890 and 588 are friends.</text><text font-family="Times New Roman,Times New Roman_MSFontService,sans-serif" font-weight="400" font-size="55" transform="matrix(1 0 0 1 1334.55 1891)">795 and 823 are friends.</text><text font-family="Times New Roman,Times New Roman_MSFontService,sans-serif" font-weight="400" font-size="55" transform="matrix(1 0 0 1 1334.55 1957)">Query: Who are the friends of </text><text fill="#2E75B6" font-family="Times New Roman,Times New Roman_MSFontService,sans-serif" font-weight="700" font-size="55" transform="matrix(1 0 0 1 2010.18 1957)">885</text><text font-family="Times New Roman,Times New Roman_MSFontService,sans-serif" font-weight="400" font-size="55" transform="matrix(1 0 0 1 2092.68 1957)">?</text><text font-family="Times New Roman,Times New Roman_MSFontService,sans-serif" font-weight="400" font-size="55" transform="matrix(1 0 0 1 1334.55 2023)">Output:</text><text font-family="Times New Roman,Times New Roman_MSFontService,sans-serif" font-weight="700" font-size="64" transform="matrix(1 0 0 1 1334.55 2098)">Label: </text><text font-family="Times New Roman,Times New Roman_MSFontService,sans-serif" font-weight="400" font-size="55" transform="matrix(1 0 0 1 1528.77 2098)">823, 588</text><rect x="2209.5" y="1212.5" width="909" height="722" stroke="#2E75B6" stroke-width="6.875" stroke-linejoin="round" stroke-miterlimit="10" fill="none"/><text font-family="Times New Roman,Times New Roman_MSFontService,sans-serif" font-weight="700" font-size="64" transform="matrix(1 0 0 1 2242.11 1291)">Prompt:</text><text font-family="Times New Roman,Times New Roman_MSFontService,sans-serif" font-weight="400" font-size="55" transform="matrix(1 0 0 1 2242.11 1359)">Input: activity, brief, wonder, anger</text><text font-family="Times New Roman,Times New Roman_MSFontService,sans-serif" font-weight="400" font-size="55" transform="matrix(1 0 0 1 2242.11 1425)">Output: anger, wonder, activity, brief</text><text font-family="Times New Roman,Times New Roman_MSFontService,sans-serif" font-weight="400" font-size="55" transform="matrix(1 0 0 1 2242.11 1491)">Input: market, forever, will, curve</text><text font-family="Times New Roman,Times New Roman_MSFontService,sans-serif" font-weight="400" font-size="55" transform="matrix(1 0 0 1 2242.11 1557)">Output: curve, will, market, forever</text><text font-family="Times New Roman,Times New Roman_MSFontService,sans-serif" font-weight="400" font-size="55" transform="matrix(1 0 0 1 2242.11 1623)">Input: pain, leading, drag, shoot</text><text font-family="Times New Roman,Times New Roman_MSFontService,sans-serif" font-weight="400" font-size="55" transform="matrix(1 0 0 1 2242.11 1689)">Output: shoot, drag, pain, leading</text><text font-family="Times New Roman,Times New Roman_MSFontService,sans-serif" font-weight="400" font-size="55" transform="matrix(1 0 0 1 2242.11 1755)">Input: shopping, drama, care, start</text><text font-family="Times New Roman,Times New Roman_MSFontService,sans-serif" font-weight="400" font-size="55" transform="matrix(1 0 0 1 2242.11 1821)">Output:</text><text font-family="Times New Roman,Times New Roman_MSFontService,sans-serif" font-weight="700" font-size="64" transform="matrix(1 0 0 1 2242.11 1896)">Label: </text><text font-family="Times New Roman,Times New Roman_MSFontService,sans-serif" font-weight="400" font-size="55" transform="matrix(1 0 0 1 2436.33 1896)">start, care, shopping, drama</text><path d="M1783 775C1783 715.353 1965.44 667 2190.5 667 2415.56 667 2598 715.353 2598 775 2598 834.647 2415.56 883 2190.5 883 1965.44 883 1783 834.647 1783 775Z" stroke="#A5A5A5" stroke-width="10.3125" stroke-miterlimit="8" fill="#FFFFFF" fill-rule="evenodd"/><text fill="#7F7F7F" font-family="Georgia,Georgia_MSFontService,sans-serif" font-style="italic" font-weight="400" font-size="128" transform="matrix(1 0 0 1 1953.97 822)">ICLEval</text><path d="M0.0975727-13.7497 53.2073-13.3728 106.307-12.256 159.195-10.424 211.77-7.90064 263.927-4.70971 315.566-0.875013 366.583 3.57975 416.875 8.63095 466.341 14.2549 514.877 20.4283 562.382 27.1274 608.753 34.3291 653.889 42.0102 697.66 50.1424 719.052 54.3803 740.046 58.7185 760.655 63.1594 780.866 67.7002 800.668 72.3382 820.047 77.0708 838.991 81.8951 857.488 86.8087 875.525 91.8087 893.09 96.8928 910.171 102.059 926.756 107.304 942.834 112.626 958.391 118.023 973.417 123.493 987.9 129.035 1001.83 134.646 1015.19 140.327 1027.98 146.076 1040.18 151.893 1051.78 157.779 1062.78 163.735 1073.16 169.764 1084.14 176.638 1101.04 194.233 1081.21 213.284 1065.49 196.916 1068.11 199.045 1058.76 193.194 1059.15 193.429 1049.14 187.617 1049.5 187.818 1038.85 182.048 1039.18 182.22 1027.89 176.494 1028.19 176.643 1016.28 170.965 1016.56 171.094 1004.04 165.467 1004.3 165.58 991.19 160.006 991.431 160.105 977.735 154.587 977.96 154.676 963.694 149.217 963.904 149.296 949.082 143.899 949.279 143.97 933.913 138.639 934.098 138.702 918.202 133.439 918.377 133.496 901.962 128.305 902.128 128.356 885.208 123.239 885.365 123.286 867.954 118.246 868.103 118.288 850.213 113.329 850.356 113.368 831.999 108.492 832.136 108.527 813.326 103.737 813.457 103.77 794.207 99.0686 794.333 99.0988 774.656 94.4898 774.777 94.5177 754.686 90.0037 754.803 90.0296 734.31 85.6136 734.424 85.6377 713.543 81.3227 713.653 81.3451 692.396 77.1341 692.557 77.1648 648.968 69.0665 649.173 69.103 604.238 61.4561 604.435 61.4881 558.257 54.3164 558.447 54.3446 511.13 47.6719 511.315 47.6967 462.962 41.5467 463.143 41.5686 413.858 35.9651 414.037 35.9843 363.923 30.951 364.101 30.9677 313.263 26.5285 313.44 26.5429 261.98 22.7214 262.159 22.7335 210.18 19.5536 210.361 19.5634 157.968 17.0488 158.152 17.0563 105.448 15.2307 105.635 15.2359 52.7249 14.1232 52.9164 14.1259-0.0975727 13.7497ZM1116.55 168.481 1131.33 259.526 1049.62 216.729Z" fill="#DEEBF7" transform="matrix(-1 1.22465e-16 1.22465e-16 1 1949.33 950)"/><path d="M0.261011-13.7475 16.2535-13.4439 32.4635-12.5318 48.5974-11.0366 64.6258-8.97833 80.5191-6.37691 96.2482-3.25185 111.784 0.377519 127.096 4.49222 142.157 9.07342 156.936 14.1027 171.405 19.5617 185.534 25.4327 199.295 31.698 212.658 38.3404 225.595 45.3432 238.075 52.69 250.069 60.3651 261.549 68.3533 272.484 76.6402 282.845 85.2121 292.601 94.0564 301.721 103.161 311.003 113.436 323.015 135.428 298.88 148.61 287.646 128.041 289.51 130.668 281.552 121.859 282.04 122.372 273.406 113.751 273.886 114.208 264.606 105.795 265.076 106.202 255.181 98.0158 255.641 98.3804 245.162 90.4393 245.613 90.7669 234.58 83.09 235.023 83.3854 223.468 75.9915 223.903 76.2589 211.856 69.1669 212.286 69.4096 199.778 62.6384 200.203 62.8592 187.264 56.4277 187.687 56.6289 174.349 50.5559 174.77 50.7395 161.063 45.0439 161.485 45.2112 147.439 39.9118 147.864 40.064 133.511 35.1798 133.939 35.3177 119.309 30.8675 119.742 30.9916 104.866 26.9943 105.307 27.1048 90.2155 23.5793 90.6641 23.6762 75.3887 20.6413 75.8471 20.7243 60.418 18.1989 60.8877 18.2675 45.3356 16.2704 45.818 16.3237 30.1736 14.8739 30.67 14.9108 14.9641 14.0271 15.4756 14.0463-0.261011 13.7475ZM344.427 114.275 335.824 206.111 267.517 144.127Z" fill="#DEEBF7" transform="matrix(-1 1.22465e-16 1.22465e-16 1 2067.82 999)"/><text fill="#9DC3E6" font-family="Segoe Print,Segoe Print_MSFontService,sans-serif" font-weight="700" font-size="83" transform="matrix(1 0 0 1 1982.05 971)">Learning</text><path d="M2396.09 936.25 2453.07 936.631 2510.03 937.759 2566.76 939.609 2623.15 942.157 2679.1 945.379 2734.49 949.251 2789.21 953.749 2843.16 958.85 2896.21 964.529 2948.27 970.762 2999.23 977.526 3048.96 984.798 3097.35 992.549 3121.05 996.605 3144.35 1000.77 3167.26 1005.04 3189.77 1009.42 3211.87 1013.91 3233.55 1018.49 3254.78 1023.17 3275.56 1027.95 3295.87 1032.82 3315.71 1037.78 3335.04 1042.82 3353.88 1047.96 3372.19 1053.17 3389.96 1058.46 3407.2 1063.83 3423.87 1069.28 3439.97 1074.79 3455.49 1080.38 3470.41 1086.04 3484.72 1091.77 3498.42 1097.57 3511.48 1103.43 3523.9 1109.36 3535.67 1115.36 3546.77 1121.43 3557.2 1127.58 3568.64 1134.89 3579.56 1148.55 3558.09 1165.73 3548.58 1153.84 3551.91 1156.84 3542.61 1150.89 3543.03 1151.15 3533 1145.24 3533.38 1145.46 3522.65 1139.59 3523 1139.77 3511.57 1133.94 3511.89 1134.1 3499.77 1128.32 3500.07 1128.45 3487.29 1122.72 3487.56 1122.83 3474.13 1117.15 3474.38 1117.25 3460.31 1111.62 3460.54 1111.71 3445.84 1106.14 3446.06 1106.22 3430.75 1100.7 3430.95 1100.77 3415.05 1095.32 3415.24 1095.39 3398.75 1090 3398.92 1090.06 3381.87 1084.74 3382.03 1084.79 3364.42 1079.55 3364.58 1079.59 3346.42 1074.43 3346.57 1074.47 3327.89 1069.38 3328.03 1069.41 3308.83 1064.4 3308.97 1064.44 3289.27 1059.51 3289.4 1059.55 3269.21 1054.71 3269.34 1054.74 3248.68 1049.99 3248.8 1050.01 3227.68 1045.36 3227.8 1045.38 3206.24 1040.82 3206.35 1040.85 3184.36 1036.38 3184.47 1036.41 3162.06 1032.05 3162.17 1032.07 3139.35 1027.81 3139.46 1027.83 3116.26 1023.69 3116.36 1023.7 3092.78 1019.67 3092.93 1019.69 3044.71 1011.97 3044.89 1012 2995.34 1004.75 2995.52 1004.78 2944.74 998.035 2944.92 998.057 2893.03 991.844 2893.2 991.863 2840.31 986.203 2840.48 986.22 2786.71 981.135 2786.87 981.15 2732.32 976.665 2732.49 976.678 2677.26 972.818 2677.43 972.828 2621.65 969.616 2621.82 969.625 2565.6 967.084 2565.77 967.091 2509.22 965.247 2509.4 965.252 2452.62 964.128 2452.8 964.13 2395.91 963.75ZM3593.61 1121.41 3610.03 1212.18 3527.56 1170.86Z" fill="#DEEBF7"/><path d="M2306.25 991.252 2323.24 991.557 2340.44 992.469 2357.56 993.965 2374.57 996.025 2391.44 998.628 2408.14 1001.76 2424.63 1005.39 2440.89 1009.51 2456.88 1014.09 2472.57 1019.13 2487.93 1024.6 2502.94 1030.47 2517.55 1036.75 2531.74 1043.4 2545.48 1050.41 2558.73 1057.77 2571.47 1065.46 2583.66 1073.46 2595.28 1081.76 2606.29 1090.34 2616.65 1099.2 2626.35 1108.33 2636.18 1118.59 2649.53 1141.3 2625.82 1155.24 2613.28 1133.91 2615.21 1136.45 2606.73 1127.61 2607.24 1128.11 2598.04 1119.45 2598.53 1119.89 2588.65 1111.45 2589.13 1111.84 2578.59 1103.62 2579.06 1103.96 2567.9 1095.99 2568.35 1096.3 2556.6 1088.59 2557.04 1088.87 2544.74 1081.44 2545.17 1081.69 2532.34 1074.57 2532.76 1074.8 2519.44 1068 2519.86 1068.2 2506.08 1061.74 2506.49 1061.93 2492.29 1055.83 2492.7 1056 2478.1 1050.28 2478.51 1050.43 2463.55 1045.11 2463.96 1045.25 2448.68 1040.35 2449.09 1040.47 2433.51 1036 2433.92 1036.11 2418.08 1032.1 2418.5 1032.2 2402.43 1028.66 2402.86 1028.75 2386.6 1025.7 2387.03 1025.77 2370.6 1023.24 2371.05 1023.3 2354.49 1021.29 2354.94 1021.34 2338.28 1019.89 2338.75 1019.92 2322.03 1019.03 2322.51 1019.05 2305.75 1018.75ZM2670.7 1119.98 2663.59 1211.95 2594.28 1151.08Z" fill="#DEEBF7"/><text fill="#9DC3E6" font-family="Segoe Print,Segoe Print_MSFontService,sans-serif" font-weight="700" font-size="83" transform="matrix(1 0 0 1 404.038 1168)">Format rules</text><text fill="#9DC3E6" font-family="Segoe Print,Segoe Print_MSFontService,sans-serif" font-weight="700" font-size="83" transform="matrix(1 0 0 1 1313.65 1166)">Statistics rules</text><text fill="#9DC3E6" font-family="Segoe Print,Segoe Print_MSFontService,sans-serif" font-weight="700" font-size="83" transform="matrix(1 0 0 1 2234.91 1172)">Order rules</text><text fill="#9DC3E6" font-family="Segoe Print,Segoe Print_MSFontService,sans-serif" font-weight="700" font-size="83" transform="matrix(1 0 0 1 3188.25 1179)">List Mapping</text><text fill="#A9D18E" font-family="Segoe Print,Segoe Print_MSFontService,sans-serif" font-weight="700" font-size="83" transform="matrix(1 0 0 1 2023.12 599)">Copying</text><path d="M1990.19 592.383 1944.64 591.951 1899.05 590.672 1853.65 588.574 1808.52 585.685 1763.74 582.031 1719.42 577.639 1675.62 572.538 1632.45 566.754 1589.99 560.313 1548.32 553.243 1507.53 545.57 1467.72 537.321 1428.96 528.522 1391.34 519.199 1354.96 509.378 1319.92 499.095 1302.87 493.767 1286.22 488.341 1269.93 482.809 1254.03 477.174 1238.52 471.439 1223.42 465.606 1208.73 459.679 1194.46 453.659 1180.62 447.549 1167.23 441.351 1154.29 435.068 1141.82 428.701 1129.82 422.251 1118.3 415.72 1107.28 409.109 1096.76 402.417 1086.75 395.644 1077.26 388.79 1068.31 381.852 1059.9 374.828 1050.76 366.553 1040.87 350.123 1064.43 335.941 1073.27 350.632 1070.72 347.53 1078.15 354.258 1077.74 353.896 1085.74 360.583 1085.35 360.268 1093.92 366.911 1093.55 366.635 1102.68 373.23 1102.34 372.988 1112.01 379.532 1111.68 379.318 1121.88 385.808 1121.58 385.618 1132.3 392.05 1132.01 391.882 1143.25 398.253 1142.97 398.102 1154.71 404.409 1154.45 404.273 1166.67 410.512 1166.43 410.391 1179.13 416.558 1178.9 416.448 1192.06 422.541 1191.84 422.442 1205.46 428.456 1205.25 428.366 1219.32 434.299 1219.12 434.217 1233.61 440.065 1233.42 439.989 1248.34 445.75 1248.15 445.68 1263.48 451.349 1263.31 451.285 1279.03 456.858 1278.87 456.8 1294.98 462.275 1294.82 462.22 1311.31 467.593 1311.15 467.543 1328.01 472.811 1327.78 472.742 1362.56 482.948 1362.27 482.867 1398.37 492.612 1398.1 492.541 1435.44 501.797 1435.18 501.734 1473.68 510.475 1473.42 510.419 1512.99 518.616 1512.74 518.567 1553.28 526.194 1553.04 526.151 1594.47 533.18 1594.23 533.142 1636.46 539.547 1636.22 539.513 1679.16 545.266 1678.92 545.236 1722.48 550.31 1722.25 550.285 1766.34 554.653 1766.1 554.631 1810.63 558.266 1810.39 558.249 1855.28 561.123 1855.04 561.109 1900.2 563.196 1899.95 563.187 1945.28 564.459 1945.02 564.454 1990.45 564.884ZM1022.36 374.228 1021 282 1095.6 336.249Z" fill="#A9D18E" fill-opacity="0.301961"/><path d="M0.130312-13.7494 46.127-13.3134 92.1588-12.0205 138.006-9.89945 183.579-6.9781 228.79-3.28397 273.551 1.15544 317.774 6.31274 361.369 12.1606 404.249 18.6718 446.326 25.8194 487.511 33.5762 527.716 41.9157 566.854 50.8111 604.838 60.2362 641.579 70.165 676.953 80.5603 694.172 85.9467 710.989 91.4317 727.43 97.0239 743.486 102.72 759.146 108.518 774.399 114.414 789.234 120.406 803.642 126.492 817.611 132.668 831.133 138.933 844.195 145.284 856.79 151.72 868.906 158.24 880.533 164.841 891.662 171.524 902.284 178.287 912.387 185.132 921.963 192.059 931.001 199.071 939.491 206.169 948.647 214.469 959.155 231.534 935.738 245.953 926.256 230.553 928.729 233.531 921.226 226.729 921.641 227.09 913.555 220.33 913.947 220.645 905.289 213.929 905.658 214.206 896.441 207.538 896.788 207.781 887.021 201.164 887.348 201.379 877.044 194.817 877.351 195.007 866.521 188.504 866.81 188.673 855.464 182.232 855.738 182.383 843.888 176.006 844.146 176.142 831.803 169.834 832.048 169.956 819.223 163.721 819.455 163.831 806.16 157.671 806.381 157.771 792.626 151.689 792.836 151.78 778.634 145.782 778.834 145.864 764.195 139.951 764.387 140.027 749.322 134.204 749.506 134.273 734.026 128.542 734.203 128.606 718.32 122.971 718.49 123.03 702.215 117.495 702.379 117.549 685.724 112.117 685.882 112.168 668.857 106.842 669.085 106.911 633.97 96.5918 634.26 96.6735 597.801 86.8211 598.077 86.8926 560.363 77.5344 560.627 77.5972 521.748 68.7607 522.003 68.8161 482.049 60.5287 482.297 60.5777 441.357 52.867 441.599 52.9104 399.763 45.8037 400.001 45.842 357.359 39.3668 357.595 39.4006 314.235 33.5844 314.471 33.6139 270.484 28.484 270.719 28.5095 226.195 24.0935 226.432 24.115 181.459 20.4404 181.7 20.4579 136.368 17.552 136.613 17.5655 91.0126 15.4559 91.262 15.4652 45.4828 14.1793 45.7385 14.1841-0.130312 13.7494ZM977.859 207.668 978.854 299.9 904.471 245.356Z" fill="#A9D18E" fill-opacity="0.301961" transform="matrix(1 0 0 -1 2404 578.9)"/><text fill="#A9D18E" font-family="Segoe Print,Segoe Print_MSFontService,sans-serif" font-weight="700" font-size="83" transform="matrix(1 0 0 1 2748.23 233)">Structured Text</text><text fill="#A9D18E" font-family="Segoe Print,Segoe Print_MSFontService,sans-serif" font-weight="700" font-size="83" transform="matrix(1 0 0 1 409.237 236)">Unstructured Text</text><rect x="2209.5" y="1954.5" width="909" height="189" stroke="#A6A6A6" stroke-width="6.875" stroke-linejoin="round" stroke-miterlimit="10" fill="none"/><text font-family="Times New Roman,Times New Roman_MSFontService,sans-serif" font-weight="700" font-size="64" transform="matrix(1 0 0 1 2242.11 2033)">Tips: </text><text font-family="Times New Roman,Times New Roman_MSFontService,sans-serif" font-weight="400" font-size="64" transform="matrix(1 0 0 1 2399.64 2033)">convert the original order </text><text font-family="Times New Roman,Times New Roman_MSFontService,sans-serif" font-weight="400" font-size="64" transform="matrix(1 0 0 1 2242.11 2110)">[1, 2, 3, 4] to [4, 3, 1, 2]</text></g></svg>
